<svg width="202" height="40" viewBox="0 0 202 40" fill="none" xmlns="http://www.w3.org/2000/svg">
<path d="M34.1422 5.85781C30.3647 2.08031 25.3422 0 20 0C14.6578 0 9.63531 2.08031 5.85781 5.85781C2.08031 9.63531 0 14.6578 0 20C0 25.3422 2.08039 30.3646 5.85781 34.1422C9.63523 37.9198 14.6578 40 20 40C25.3422 40 30.3647 37.9197 34.1422 34.1422C37.9197 30.3647 40 25.3422 40 20C40 14.6578 37.9196 9.63539 34.1422 5.85781Z" fill="#33CC95"/>
<g clip-path="url(#clip0_123613_178)">
<path d="M20.5714 8V33.1429" stroke="white" stroke-width="2" stroke-linecap="round" stroke-linejoin="round"/>
<path d="M26.2857 12.5714H17.7143C16.6534 12.5714 15.636 12.9929 14.8859 13.743C14.1357 14.4931 13.7143 15.5106 13.7143 16.5714C13.7143 17.6323 14.1357 18.6497 14.8859 19.3999C15.636 20.15 16.6534 20.5714 17.7143 20.5714H23.4286C24.4894 20.5714 25.5069 20.9929 26.257 21.743C27.0072 22.4932 27.4286 23.5106 27.4286 24.5714C27.4286 25.6323 27.0072 26.6497 26.257 27.3999C25.5069 28.15 24.4894 28.5714 23.4286 28.5714H13.7143" stroke="white" stroke-width="2" stroke-linecap="round" stroke-linejoin="round"/>
</g>
<path d="M56.9069 15.12C56.2989 15.12 55.7949 14.936 55.3949 14.568C55.0109 14.184 54.8189 13.712 54.8189 13.152C54.8189 12.592 55.0109 12.128 55.3949 11.76C55.7949 11.376 56.2989 11.184 56.9069 11.184C57.4989 11.184 57.9869 11.376 58.3709 11.76C58.7549 12.128 58.9469 12.592 58.9469 13.152C58.9469 13.712 58.7549 14.184 58.3709 14.568C57.9869 14.936 57.4989 15.12 56.9069 15.12ZM58.5629 32.184C58.5629 33.656 58.1949 34.712 57.4589 35.352C56.7389 36.008 55.6989 36.336 54.3389 36.336H52.8509V33.48H53.8109C54.3229 33.48 54.6829 33.376 54.8909 33.168C55.0989 32.976 55.2029 32.656 55.2029 32.208V16.704H58.5629V32.184ZM61.4986 21.024C61.4986 18.256 61.9946 16.088 62.9866 14.52C63.9946 12.952 65.6586 12.168 67.9786 12.168C70.2986 12.168 71.9546 12.952 72.9466 14.52C73.9546 16.088 74.4586 18.256 74.4586 21.024C74.4586 23.808 73.9546 25.992 72.9466 27.576C71.9546 29.16 70.2986 29.952 67.9786 29.952C65.6586 29.952 63.9946 29.16 62.9866 27.576C61.9946 25.992 61.4986 23.808 61.4986 21.024ZM71.1466 21.024C71.1466 19.84 71.0666 18.848 70.9066 18.048C70.7626 17.232 70.4586 16.568 69.9946 16.056C69.5466 15.544 68.8746 15.288 67.9786 15.288C67.0826 15.288 66.4026 15.544 65.9386 16.056C65.4906 16.568 65.1866 17.232 65.0266 18.048C64.8826 18.848 64.8106 19.84 64.8106 21.024C64.8106 22.24 64.8826 23.264 65.0266 24.096C65.1706 24.912 65.4746 25.576 65.9386 26.088C66.4026 26.584 67.0826 26.832 67.9786 26.832C68.8746 26.832 69.5546 26.584 70.0186 26.088C70.4826 25.576 70.7866 24.912 70.9306 24.096C71.0746 23.264 71.1466 22.24 71.1466 21.024ZM81.3102 19.464V25.896C81.3102 26.344 81.4142 26.672 81.6222 26.88C81.8462 27.072 82.2142 27.168 82.7262 27.168H84.2862V30H82.1742C79.3422 30 77.9262 28.624 77.9262 25.872V19.464H76.3422V16.704H77.9262V13.416H81.3102V16.704H84.2862V19.464H81.3102ZM90.6149 19.464V25.896C90.6149 26.344 90.7189 26.672 90.9269 26.88C91.1509 27.072 91.5189 27.168 92.0309 27.168H93.5909V30H91.4789C88.6469 30 87.2309 28.624 87.2309 25.872V19.464H85.6469V16.704H87.2309V13.416H90.6149V16.704H93.5909V19.464H90.6149ZM95.1436 23.304C95.1436 21.96 95.4076 20.768 95.9356 19.728C96.4796 18.688 97.2076 17.888 98.1196 17.328C99.0476 16.768 100.08 16.488 101.216 16.488C102.208 16.488 103.072 16.688 103.808 17.088C104.56 17.488 105.16 17.992 105.608 18.6V16.704H108.992V30H105.608V28.056C105.176 28.68 104.576 29.2 103.808 29.616C103.056 30.016 102.184 30.216 101.192 30.216C100.072 30.216 99.0476 29.928 98.1196 29.352C97.2076 28.776 96.4796 27.968 95.9356 26.928C95.4076 25.872 95.1436 24.664 95.1436 23.304ZM105.608 23.352C105.608 22.536 105.448 21.84 105.128 21.264C104.808 20.672 104.376 20.224 103.832 19.92C103.288 19.6 102.704 19.44 102.08 19.44C101.456 19.44 100.88 19.592 100.352 19.896C99.8236 20.2 99.3916 20.648 99.0556 21.24C98.7356 21.816 98.5756 22.504 98.5756 23.304C98.5756 24.104 98.7356 24.808 99.0556 25.416C99.3916 26.008 99.8236 26.464 100.352 26.784C100.896 27.104 101.472 27.264 102.08 27.264C102.704 27.264 103.288 27.112 103.832 26.808C104.376 26.488 104.808 26.04 105.128 25.464C105.448 24.872 105.608 24.168 105.608 23.352ZM134.504 16.512C136.136 16.512 137.448 17.016 138.44 18.024C139.448 19.016 139.952 20.408 139.952 22.2V30H136.592V22.656C136.592 21.616 136.328 20.824 135.8 20.28C135.272 19.72 134.552 19.44 133.64 19.44C132.728 19.44 132 19.72 131.456 20.28C130.928 20.824 130.664 21.616 130.664 22.656V30H127.304V22.656C127.304 21.616 127.04 20.824 126.512 20.28C125.984 19.72 125.264 19.44 124.352 19.44C123.424 19.44 122.688 19.72 122.144 20.28C121.616 20.824 121.352 21.616 121.352 22.656V30H117.992V16.704H121.352V18.312C121.784 17.752 122.336 17.312 123.008 16.992C123.696 16.672 124.448 16.512 125.264 16.512C126.304 16.512 127.232 16.736 128.048 17.184C128.864 17.616 129.496 18.24 129.944 19.056C130.376 18.288 131 17.672 131.816 17.208C132.648 16.744 133.544 16.512 134.504 16.512ZM149.044 30.216C147.764 30.216 146.612 29.936 145.588 29.376C144.564 28.8 143.756 27.992 143.164 26.952C142.588 25.912 142.3 24.712 142.3 23.352C142.3 21.992 142.596 20.792 143.188 19.752C143.796 18.712 144.62 17.912 145.66 17.352C146.7 16.776 147.86 16.488 149.14 16.488C150.42 16.488 151.58 16.776 152.62 17.352C153.66 17.912 154.476 18.712 155.068 19.752C155.676 20.792 155.98 21.992 155.98 23.352C155.98 24.712 155.668 25.912 155.044 26.952C154.436 27.992 153.604 28.8 152.548 29.376C151.508 29.936 150.34 30.216 149.044 30.216ZM149.044 27.288C149.652 27.288 150.22 27.144 150.748 26.856C151.292 26.552 151.724 26.104 152.044 25.512C152.364 24.92 152.524 24.2 152.524 23.352C152.524 22.088 152.188 21.12 151.516 20.448C150.86 19.76 150.052 19.416 149.092 19.416C148.132 19.416 147.324 19.76 146.668 20.448C146.028 21.12 145.708 22.088 145.708 23.352C145.708 24.616 146.02 25.592 146.644 26.28C147.284 26.952 148.084 27.288 149.044 27.288ZM165.813 16.512C167.397 16.512 168.677 17.016 169.653 18.024C170.629 19.016 171.117 20.408 171.117 22.2V30H167.757V22.656C167.757 21.6 167.493 20.792 166.965 20.232C166.437 19.656 165.717 19.368 164.805 19.368C163.877 19.368 163.141 19.656 162.597 20.232C162.069 20.792 161.805 21.6 161.805 22.656V30H158.445V16.704H161.805V18.36C162.253 17.784 162.821 17.336 163.509 17.016C164.213 16.68 164.981 16.512 165.813 16.512ZM186.672 23.064C186.672 23.544 186.64 23.976 186.576 24.36H176.856C176.936 25.32 177.272 26.072 177.864 26.616C178.456 27.16 179.184 27.432 180.048 27.432C181.296 27.432 182.184 26.896 182.712 25.824H186.336C185.952 27.104 185.216 28.16 184.128 28.992C183.04 29.808 181.704 30.216 180.12 30.216C178.84 30.216 177.688 29.936 176.664 29.376C175.656 28.8 174.864 27.992 174.288 26.952C173.728 25.912 173.448 24.712 173.448 23.352C173.448 21.976 173.728 20.768 174.288 19.728C174.848 18.688 175.632 17.888 176.64 17.328C177.648 16.768 178.808 16.488 180.12 16.488C181.384 16.488 182.512 16.76 183.504 17.304C184.512 17.848 185.288 18.624 185.832 19.632C186.392 20.624 186.672 21.768 186.672 23.064ZM183.192 22.104C183.176 21.24 182.864 20.552 182.256 20.04C181.648 19.512 180.904 19.248 180.024 19.248C179.192 19.248 178.488 19.504 177.912 20.016C177.352 20.512 177.008 21.208 176.88 22.104H183.192ZM201.845 16.704L193.613 36.288H190.037L192.917 29.664L187.589 16.704H191.357L194.789 25.992L198.269 16.704H201.845Z" fill="white"/>
<defs>
<clipPath id="clip0_123613_178">
<rect width="27.4286" height="27.4286" fill="white" transform="translate(6.85715 6.85714)"/>
</clipPath>
</defs>
</svg>
